<svg xmlns="http://www.w3.org/2000/svg" viewBox="0 -1 32 56" width="128" height="224" shape-rendering="crispEdges" role="img">
<title>Shako</title>
<rect x="12" y="0" width="1" height="1" fill="#0b0203"/>
<rect x="13" y="0" width="1" height="1" fill="#030f06"/>
<rect x="14" y="0" width="5" height="1" fill="#04270f"/>
<rect x="10" y="1" width="1" height="1" fill="#210302"/>
<rect x="11" y="1" width="1" height="1" fill="#101811"/>
<rect x="12" y="1" width="1" height="1" fill="#2b352b"/>
<rect x="13" y="1" width="2" height="1" fill="#436748"/>
<rect x="15" y="1" width="2" height="1" fill="#2a7146"/>
<rect x="17" y="1" width="1" height="1" fill="#39854c"/>
<rect x="18" y="1" width="1" height="1" fill="#2a7146"/>
<rect x="19" y="1" width="4" height="1" fill="#143b2d"/>
<rect x="23" y="1" width="1" height="1" fill="#2b352b"/>
<rect x="24" y="1" width="1" height="1" fill="#092012"/>
<rect x="25" y="1" width="1" height="1" fill="#18150d"/>
<rect x="26" y="1" width="2" height="1" fill="#0b0203"/>
<rect x="10" y="2" width="1" height="1" fill="#04270f"/>
<rect x="11" y="2" width="2" height="1" fill="#267b33"/>
<rect x="13" y="2" width="6" height="1" fill="#078c58"/>
<rect x="19" y="2" width="2" height="1" fill="#19813f"/>
<rect x="21" y="2" width="2" height="1" fill="#267b33"/>
<rect x="23" y="2" width="1" height="1" fill="#1c7b50"/>
<rect x="24" y="2" width="3" height="1" fill="#035026"/>
<rect x="27" y="2" width="1" height="1" fill="#04270f"/>
<rect x="8" y="3" width="1" height="1" fill="#0b0203"/>
<rect x="9" y="3" width="1" height="1" fill="#143b2d"/>
<rect x="10" y="3" width="1" height="1" fill="#436748"/>
<rect x="11" y="3" width="2" height="1" fill="#267b33"/>
<rect x="13" y="3" width="4" height="1" fill="#078c58"/>
<rect x="17" y="3" width="1" height="1" fill="#078654"/>
<rect x="18" y="3" width="1" height="1" fill="#078c58"/>
<rect x="19" y="3" width="2" height="1" fill="#19813f"/>
<rect x="21" y="3" width="3" height="1" fill="#267b33"/>
<rect x="24" y="3" width="2" height="1" fill="#035026"/>
<rect x="26" y="3" width="1" height="1" fill="#1c7b50"/>
<rect x="27" y="3" width="1" height="1" fill="#436748"/>
<rect x="28" y="3" width="1" height="1" fill="#092012"/>
<rect x="6" y="4" width="1" height="1" fill="#0b0203"/>
<rect x="8" y="4" width="1" height="1" fill="#04270f"/>
<rect x="9" y="4" width="2" height="1" fill="#267b33"/>
<rect x="11" y="4" width="4" height="1" fill="#078c58"/>
<rect x="15" y="4" width="1" height="1" fill="#078654"/>
<rect x="16" y="4" width="2" height="1" fill="#078c58"/>
<rect x="18" y="4" width="1" height="1" fill="#078654"/>
<rect x="19" y="4" width="2" height="1" fill="#078c58"/>
<rect x="21" y="4" width="2" height="1" fill="#19813f"/>
<rect x="23" y="4" width="2" height="1" fill="#2b7127"/>
<rect x="25" y="4" width="2" height="1" fill="#267b33"/>
<rect x="27" y="4" width="1" height="1" fill="#125129"/>
<rect x="28" y="4" width="1" height="1" fill="#04270f"/>
<rect x="29" y="4" width="1" height="1" fill="#0b0203"/>
<rect x="6" y="5" width="1" height="1" fill="#0b0203"/>
<rect x="7" y="5" width="1" height="1" fill="#143b2d"/>
<rect x="8" y="5" width="1" height="1" fill="#0e4733"/>
<rect x="9" y="5" width="2" height="1" fill="#267b33"/>
<rect x="11" y="5" width="1" height="1" fill="#078c58"/>
<rect x="12" y="5" width="1" height="1" fill="#078654"/>
<rect x="13" y="5" width="1" height="1" fill="#078c58"/>
<rect x="14" y="5" width="1" height="1" fill="#078654"/>
<rect x="15" y="5" width="1" height="1" fill="#078c58"/>
<rect x="16" y="5" width="1" height="1" fill="#078654"/>
<rect x="17" y="5" width="1" height="1" fill="#078c58"/>
<rect x="18" y="5" width="1" height="1" fill="#078654"/>
<rect x="19" y="5" width="2" height="1" fill="#078c58"/>
<rect x="21" y="5" width="1" height="1" fill="#177839"/>
<rect x="22" y="5" width="1" height="1" fill="#19813f"/>
<rect x="23" y="5" width="1" height="1" fill="#2b7127"/>
<rect x="24" y="5" width="1" height="1" fill="#267b33"/>
<rect x="25" y="5" width="1" height="1" fill="#094919"/>
<rect x="26" y="5" width="1" height="1" fill="#267b33"/>
<rect x="27" y="5" width="1" height="1" fill="#1a4629"/>
<rect x="28" y="5" width="1" height="1" fill="#04270f"/>
<rect x="29" y="5" width="1" height="1" fill="#0b0203"/>
<rect x="6" y="6" width="1" height="1" fill="#092012"/>
<rect x="7" y="6" width="2" height="1" fill="#035026"/>
<rect x="9" y="6" width="2" height="1" fill="#2b7127"/>
<rect x="11" y="6" width="1" height="1" fill="#177839"/>
<rect x="12" y="6" width="1" height="1" fill="#19813f"/>
<rect x="13" y="6" width="1" height="1" fill="#078654"/>
<rect x="14" y="6" width="1" height="1" fill="#078c58"/>
<rect x="15" y="6" width="6" height="1" fill="#078654"/>
<rect x="21" y="6" width="2" height="1" fill="#078c58"/>
<rect x="23" y="6" width="4" height="1" fill="#2b7127"/>
<rect x="27" y="6" width="1" height="1" fill="#0e4733"/>
<rect x="28" y="6" width="1" height="1" fill="#04270f"/>
<rect x="29" y="6" width="2" height="1" fill="#0b0203"/>
<rect x="4" y="7" width="1" height="1" fill="#0b0203"/>
<rect x="5" y="7" width="1" height="1" fill="#092012"/>
<rect x="6" y="7" width="1" height="1" fill="#2b352b"/>
<rect x="7" y="7" width="1" height="1" fill="#035026"/>
<rect x="8" y="7" width="1" height="1" fill="#1c7b50"/>
<rect x="9" y="7" width="2" height="1" fill="#2b7127"/>
<rect x="11" y="7" width="2" height="1" fill="#177839"/>
<rect x="13" y="7" width="8" height="1" fill="#078654"/>
<rect x="21" y="7" width="2" height="1" fill="#078c58"/>
<rect x="23" y="7" width="4" height="1" fill="#2b7127"/>
<rect x="27" y="7" width="1" height="1" fill="#0e4733"/>
<rect x="28" y="7" width="1" height="1" fill="#04270f"/>
<rect x="29" y="7" width="1" height="1" fill="#0b0203"/>
<rect x="30" y="7" width="1" height="1" fill="#18150d"/>
<rect x="4" y="8" width="1" height="1" fill="#0b0203"/>
<rect x="5" y="8" width="2" height="1" fill="#014a34"/>
<rect x="7" y="8" width="1" height="1" fill="#035026"/>
<rect x="8" y="8" width="1" height="1" fill="#094919"/>
<rect x="9" y="8" width="2" height="1" fill="#177839"/>
<rect x="11" y="8" width="2" height="1" fill="#078c58"/>
<rect x="13" y="8" width="5" height="1" fill="#078654"/>
<rect x="18" y="8" width="1" height="1" fill="#098251"/>
<rect x="19" y="8" width="2" height="1" fill="#078654"/>
<rect x="21" y="8" width="1" height="1" fill="#267b33"/>
<rect x="22" y="8" width="1" height="1" fill="#2b7127"/>
<rect x="23" y="8" width="1" height="1" fill="#035026"/>
<rect x="24" y="8" width="1" height="1" fill="#2a7146"/>
<rect x="25" y="8" width="2" height="1" fill="#014a34"/>
<rect x="27" y="8" width="1" height="1" fill="#064527"/>
<rect x="28" y="8" width="1" height="1" fill="#014a34"/>
<rect x="29" y="8" width="2" height="1" fill="#18150d"/>
<rect x="3" y="9" width="1" height="1" fill="#0b0203"/>
<rect x="4" y="9" width="1" height="1" fill="#18150d"/>
<rect x="5" y="9" width="1" height="1" fill="#014a34"/>
<rect x="6" y="9" width="1" height="1" fill="#075339"/>
<rect x="7" y="9" width="1" height="1" fill="#267b33"/>
<rect x="8" y="9" width="1" height="1" fill="#177839"/>
<rect x="9" y="9" width="2" height="1" fill="#19813f"/>
<rect x="11" y="9" width="1" height="1" fill="#078c58"/>
<rect x="12" y="9" width="5" height="1" fill="#078654"/>
<rect x="17" y="9" width="1" height="1" fill="#098251"/>
<rect x="18" y="9" width="3" height="1" fill="#078654"/>
<rect x="21" y="9" width="2" height="1" fill="#2b7127"/>
<rect x="23" y="9" width="1" height="1" fill="#064527"/>
<rect x="24" y="9" width="1" height="1" fill="#035026"/>
<rect x="25" y="9" width="2" height="1" fill="#014a34"/>
<rect x="27" y="9" width="1" height="1" fill="#075339"/>
<rect x="28" y="9" width="1" height="1" fill="#014a34"/>
<rect x="29" y="9" width="2" height="1" fill="#18150d"/>
<rect x="31" y="9" width="1" height="1" fill="#0b0203"/>
<rect x="4" y="10" width="1" height="1" fill="#092012"/>
<rect x="5" y="10" width="1" height="1" fill="#075339"/>
<rect x="6" y="10" width="1" height="1" fill="#014a34"/>
<rect x="7" y="10" width="2" height="1" fill="#2b7127"/>
<rect x="9" y="10" width="2" height="1" fill="#19813f"/>
<rect x="11" y="10" width="4" height="1" fill="#078654"/>
<rect x="15" y="10" width="3" height="1" fill="#098251"/>
<rect x="18" y="10" width="1" height="1" fill="#078654"/>
<rect x="19" y="10" width="3" height="1" fill="#2b7127"/>
<rect x="22" y="10" width="2" height="1" fill="#064527"/>
<rect x="24" y="10" width="3" height="1" fill="#014a34"/>
<rect x="27" y="10" width="2" height="1" fill="#075339"/>
<rect x="29" y="10" width="1" height="1" fill="#092012"/>
<rect x="30" y="10" width="1" height="1" fill="#030f06"/>
<rect x="31" y="10" width="1" height="1" fill="#0b0203"/>
<rect x="4" y="11" width="1" height="1" fill="#092012"/>
<rect x="5" y="11" width="2" height="1" fill="#075339"/>
<rect x="7" y="11" width="2" height="1" fill="#2b7127"/>
<rect x="9" y="11" width="2" height="1" fill="#177839"/>
<rect x="11" y="11" width="4" height="1" fill="#078654"/>
<rect x="15" y="11" width="4" height="1" fill="#098251"/>
<rect x="19" y="11" width="1" height="1" fill="#2b7127"/>
<rect x="20" y="11" width="1" height="1" fill="#177839"/>
<rect x="21" y="11" width="1" height="1" fill="#2a7146"/>
<rect x="22" y="11" width="1" height="1" fill="#094919"/>
<rect x="23" y="11" width="1" height="1" fill="#064527"/>
<rect x="24" y="11" width="3" height="1" fill="#014a34"/>
<rect x="27" y="11" width="2" height="1" fill="#075339"/>
<rect x="29" y="11" width="2" height="1" fill="#092012"/>
<rect x="31" y="11" width="1" height="1" fill="#0b0203"/>
<rect x="3" y="12" width="1" height="1" fill="#04270f"/>
<rect x="4" y="12" width="1" height="1" fill="#0e4733"/>
<rect x="5" y="12" width="1" height="1" fill="#094919"/>
<rect x="6" y="12" width="1" height="1" fill="#267b33"/>
<rect x="7" y="12" width="3" height="1" fill="#19813f"/>
<rect x="10" y="12" width="3" height="1" fill="#177839"/>
<rect x="13" y="12" width="3" height="1" fill="#078654"/>
<rect x="16" y="12" width="1" height="1" fill="#098251"/>
<rect x="17" y="12" width="1" height="1" fill="#078654"/>
<rect x="18" y="12" width="1" height="1" fill="#098251"/>
<rect x="19" y="12" width="3" height="1" fill="#2b7127"/>
<rect x="22" y="12" width="1" height="1" fill="#094919"/>
<rect x="23" y="12" width="1" height="1" fill="#064527"/>
<rect x="24" y="12" width="3" height="1" fill="#014a34"/>
<rect x="27" y="12" width="1" height="1" fill="#214720"/>
<rect x="28" y="12" width="1" height="1" fill="#04270f"/>
<rect x="29" y="12" width="1" height="1" fill="#092012"/>
<rect x="30" y="12" width="1" height="1" fill="#030f06"/>
<rect x="31" y="12" width="1" height="1" fill="#210302"/>
<rect x="2" y="13" width="1" height="1" fill="#0b0203"/>
<rect x="3" y="13" width="1" height="1" fill="#04270f"/>
<rect x="4" y="13" width="1" height="1" fill="#0e4733"/>
<rect x="5" y="13" width="2" height="1" fill="#267b33"/>
<rect x="7" y="13" width="2" height="1" fill="#19813f"/>
<rect x="9" y="13" width="2" height="1" fill="#177839"/>
<rect x="11" y="13" width="1" height="1" fill="#19813f"/>
<rect x="12" y="13" width="1" height="1" fill="#177839"/>
<rect x="13" y="13" width="1" height="1" fill="#078c58"/>
<rect x="14" y="13" width="5" height="1" fill="#098251"/>
<rect x="19" y="13" width="1" height="1" fill="#177839"/>
<rect x="20" y="13" width="1" height="1" fill="#2b7127"/>
<rect x="21" y="13" width="1" height="1" fill="#1d5833"/>
<rect x="22" y="13" width="1" height="1" fill="#2b7127"/>
<rect x="23" y="13" width="4" height="1" fill="#014a34"/>
<rect x="27" y="13" width="1" height="1" fill="#214720"/>
<rect x="28" y="13" width="3" height="1" fill="#092012"/>
<rect x="31" y="13" width="1" height="1" fill="#0b0203"/>
<rect x="3" y="14" width="1" height="1" fill="#04270f"/>
<rect x="4" y="14" width="1" height="1" fill="#0e4733"/>
<rect x="5" y="14" width="1" height="1" fill="#035026"/>
<rect x="6" y="14" width="1" height="1" fill="#1c7b50"/>
<rect x="7" y="14" width="1" height="1" fill="#19813f"/>
<rect x="8" y="14" width="1" height="1" fill="#177839"/>
<rect x="9" y="14" width="2" height="1" fill="#267b33"/>
<rect x="11" y="14" width="1" height="1" fill="#078654"/>
<rect x="12" y="14" width="1" height="1" fill="#098251"/>
<rect x="13" y="14" width="1" height="1" fill="#078654"/>
<rect x="14" y="14" width="1" height="1" fill="#098251"/>
<rect x="15" y="14" width="1" height="1" fill="#078654"/>
<rect x="16" y="14" width="1" height="1" fill="#098251"/>
<rect x="17" y="14" width="4" height="1" fill="#2b7127"/>
<rect x="21" y="14" width="1" height="1" fill="#2a7146"/>
<rect x="22" y="14" width="1" height="1" fill="#064527"/>
<rect x="23" y="14" width="2" height="1" fill="#014a34"/>
<rect x="25" y="14" width="1" height="1" fill="#143b2d"/>
<rect x="26" y="14" width="1" height="1" fill="#04270f"/>
<rect x="27" y="14" width="1" height="1" fill="#143b2d"/>
<rect x="28" y="14" width="3" height="1" fill="#04270f"/>
<rect x="31" y="14" width="1" height="1" fill="#0b0203"/>
<rect x="2" y="15" width="1" height="1" fill="#18150d"/>
<rect x="3" y="15" width="1" height="1" fill="#0e4733"/>
<rect x="4" y="15" width="1" height="1" fill="#04270f"/>
<rect x="5" y="15" width="3" height="1" fill="#035026"/>
<rect x="8" y="15" width="1" height="1" fill="#177839"/>
<rect x="9" y="15" width="1" height="1" fill="#267b33"/>
<rect x="10" y="15" width="1" height="1" fill="#177839"/>
<rect x="11" y="15" width="6" height="1" fill="#078654"/>
<rect x="17" y="15" width="4" height="1" fill="#2b7127"/>
<rect x="21" y="15" width="2" height="1" fill="#064527"/>
<rect x="23" y="15" width="2" height="1" fill="#014a34"/>
<rect x="25" y="15" width="1" height="1" fill="#143b2d"/>
<rect x="26" y="15" width="4" height="1" fill="#04270f"/>
<rect x="30" y="15" width="1" height="1" fill="#092012"/>
<rect x="1" y="16" width="1" height="1" fill="#030f06"/>
<rect x="2" y="16" width="1" height="1" fill="#0e4733"/>
<rect x="3" y="16" width="1" height="1" fill="#39854c"/>
<rect x="4" y="16" width="1" height="1" fill="#267b33"/>
<rect x="5" y="16" width="2" height="1" fill="#2a7146"/>
<rect x="7" y="16" width="2" height="1" fill="#19813f"/>
<rect x="9" y="16" width="4" height="1" fill="#177839"/>
<rect x="13" y="16" width="1" height="1" fill="#19813f"/>
<rect x="14" y="16" width="1" height="1" fill="#098251"/>
<rect x="15" y="16" width="2" height="1" fill="#078654"/>
<rect x="17" y="16" width="2" height="1" fill="#098251"/>
<rect x="19" y="16" width="2" height="1" fill="#177839"/>
<rect x="21" y="16" width="2" height="1" fill="#064527"/>
<rect x="23" y="16" width="2" height="1" fill="#014a34"/>
<rect x="25" y="16" width="1" height="1" fill="#143b2d"/>
<rect x="26" y="16" width="2" height="1" fill="#04270f"/>
<rect x="28" y="16" width="2" height="1" fill="#092012"/>
<rect x="30" y="16" width="1" height="1" fill="#030f06"/>
<rect x="0" y="17" width="1" height="1" fill="#210302"/>
<rect x="1" y="17" width="1" height="1" fill="#092012"/>
<rect x="2" y="17" width="1" height="1" fill="#0e4733"/>
<rect x="3" y="17" width="2" height="1" fill="#04270f"/>
<rect x="5" y="17" width="1" height="1" fill="#125129"/>
<rect x="6" y="17" width="1" height="1" fill="#094919"/>
<rect x="7" y="17" width="6" height="1" fill="#19813f"/>
<rect x="13" y="17" width="1" height="1" fill="#098251"/>
<rect x="14" y="17" width="1" height="1" fill="#19813f"/>
<rect x="15" y="17" width="3" height="1" fill="#078654"/>
<rect x="18" y="17" width="1" height="1" fill="#098251"/>
<rect x="19" y="17" width="1" height="1" fill="#094919"/>
<rect x="20" y="17" width="1" height="1" fill="#177839"/>
<rect x="21" y="17" width="2" height="1" fill="#2a7146"/>
<rect x="23" y="17" width="2" height="1" fill="#014a34"/>
<rect x="25" y="17" width="1" height="1" fill="#143b2d"/>
<rect x="26" y="17" width="3" height="1" fill="#04270f"/>
<rect x="29" y="17" width="1" height="1" fill="#092012"/>
<rect x="30" y="17" width="1" height="1" fill="#101811"/>
<rect x="0" y="18" width="1" height="1" fill="#210302"/>
<rect x="1" y="18" width="2" height="1" fill="#04270f"/>
<rect x="3" y="18" width="4" height="1" fill="#0b0203"/>
<rect x="7" y="18" width="1" height="1" fill="#000000"/>
<rect x="8" y="18" width="1" height="1" fill="#101811"/>
<rect x="9" y="18" width="1" height="1" fill="#092012"/>
<rect x="10" y="18" width="1" height="1" fill="#2b352b"/>
<rect x="11" y="18" width="1" height="1" fill="#064527"/>
<rect x="12" y="18" width="1" height="1" fill="#2a7146"/>
<rect x="13" y="18" width="2" height="1" fill="#1c7b50"/>
<rect x="15" y="18" width="1" height="1" fill="#19813f"/>
<rect x="16" y="18" width="2" height="1" fill="#177839"/>
<rect x="18" y="18" width="3" height="1" fill="#2b7127"/>
<rect x="21" y="18" width="1" height="1" fill="#2a7146"/>
<rect x="22" y="18" width="1" height="1" fill="#064527"/>
<rect x="23" y="18" width="1" height="1" fill="#143b2d"/>
<rect x="24" y="18" width="3" height="1" fill="#04270f"/>
<rect x="27" y="18" width="3" height="1" fill="#092012"/>
<rect x="30" y="18" width="1" height="1" fill="#030f06"/>
<rect x="0" y="19" width="1" height="1" fill="#210302"/>
<rect x="1" y="19" width="2" height="1" fill="#04270f"/>
<rect x="3" y="19" width="1" height="1" fill="#0b0203"/>
<rect x="4" y="19" width="7" height="1" fill="#000000"/>
<rect x="11" y="19" width="2" height="1" fill="#04270f"/>
<rect x="13" y="19" width="1" height="1" fill="#035026"/>
<rect x="14" y="19" width="2" height="1" fill="#177839"/>
<rect x="16" y="19" width="1" height="1" fill="#19813f"/>
<rect x="17" y="19" width="1" height="1" fill="#267b33"/>
<rect x="18" y="19" width="3" height="1" fill="#2b7127"/>
<rect x="21" y="19" width="3" height="1" fill="#064527"/>
<rect x="24" y="19" width="2" height="1" fill="#04270f"/>
<rect x="26" y="19" width="1" height="1" fill="#092012"/>
<rect x="27" y="19" width="1" height="1" fill="#04270f"/>
<rect x="28" y="19" width="2" height="1" fill="#092012"/>
<rect x="30" y="19" width="1" height="1" fill="#030f06"/>
<rect x="31" y="19" width="1" height="1" fill="#0b0203"/>
<rect x="0" y="20" width="1" height="1" fill="#210302"/>
<rect x="1" y="20" width="2" height="1" fill="#092012"/>
<rect x="3" y="20" width="1" height="1" fill="#0b0203"/>
<rect x="4" y="20" width="1" height="1" fill="#000000"/>
<rect x="5" y="20" width="4" height="1" fill="#0b0203"/>
<rect x="9" y="20" width="2" height="1" fill="#000000"/>
<rect x="11" y="20" width="1" height="1" fill="#0b0203"/>
<rect x="12" y="20" width="2" height="1" fill="#000000"/>
<rect x="14" y="20" width="1" height="1" fill="#101811"/>
<rect x="15" y="20" width="1" height="1" fill="#092012"/>
<rect x="16" y="20" width="1" height="1" fill="#143b2d"/>
<rect x="17" y="20" width="1" height="1" fill="#064527"/>
<rect x="18" y="20" width="1" height="1" fill="#2a7146"/>
<rect x="19" y="20" width="2" height="1" fill="#2b7127"/>
<rect x="21" y="20" width="1" height="1" fill="#2a7146"/>
<rect x="22" y="20" width="1" height="1" fill="#094919"/>
<rect x="23" y="20" width="1" height="1" fill="#143b2d"/>
<rect x="24" y="20" width="2" height="1" fill="#04270f"/>
<rect x="26" y="20" width="1" height="1" fill="#092012"/>
<rect x="27" y="20" width="2" height="1" fill="#04270f"/>
<rect x="29" y="20" width="1" height="1" fill="#18150d"/>
<rect x="30" y="20" width="2" height="1" fill="#0b0203"/>
<rect x="0" y="21" width="1" height="1" fill="#210302"/>
<rect x="1" y="21" width="1" height="1" fill="#030f06"/>
<rect x="2" y="21" width="1" height="1" fill="#092012"/>
<rect x="3" y="21" width="5" height="1" fill="#0b0203"/>
<rect x="8" y="21" width="2" height="1" fill="#000000"/>
<rect x="10" y="21" width="1" height="1" fill="#0b0203"/>
<rect x="11" y="21" width="5" height="1" fill="#000000"/>
<rect x="16" y="21" width="1" height="1" fill="#092012"/>
<rect x="17" y="21" width="1" height="1" fill="#04270f"/>
<rect x="18" y="21" width="1" height="1" fill="#064527"/>
<rect x="19" y="21" width="3" height="1" fill="#2b7127"/>
<rect x="22" y="21" width="1" height="1" fill="#094919"/>
<rect x="23" y="21" width="2" height="1" fill="#04270f"/>
<rect x="25" y="21" width="1" height="1" fill="#092012"/>
<rect x="26" y="21" width="3" height="1" fill="#04270f"/>
<rect x="29" y="21" width="1" height="1" fill="#101811"/>
<rect x="30" y="21" width="2" height="1" fill="#0b0203"/>
<rect x="0" y="22" width="1" height="1" fill="#0b0203"/>
<rect x="1" y="22" width="1" height="1" fill="#000000"/>
<rect x="2" y="22" width="1" height="1" fill="#101811"/>
<rect x="3" y="22" width="2" height="1" fill="#030f06"/>
<rect x="5" y="22" width="4" height="1" fill="#0b0203"/>
<rect x="9" y="22" width="7" height="1" fill="#000000"/>
<rect x="16" y="22" width="1" height="1" fill="#092012"/>
<rect x="17" y="22" width="1" height="1" fill="#04270f"/>
<rect x="18" y="22" width="1" height="1" fill="#092012"/>
<rect x="19" y="22" width="1" height="1" fill="#094919"/>
<rect x="20" y="22" width="1" height="1" fill="#2a7146"/>
<rect x="21" y="22" width="1" height="1" fill="#0e4733"/>
<rect x="22" y="22" width="1" height="1" fill="#075339"/>
<rect x="23" y="22" width="2" height="1" fill="#04270f"/>
<rect x="25" y="22" width="2" height="1" fill="#092012"/>
<rect x="27" y="22" width="1" height="1" fill="#04270f"/>
<rect x="28" y="22" width="1" height="1" fill="#092012"/>
<rect x="29" y="22" width="1" height="1" fill="#18150d"/>
<rect x="31" y="22" width="1" height="1" fill="#0b0203"/>
<rect x="1" y="23" width="1" height="1" fill="#030f06"/>
<rect x="2" y="23" width="2" height="1" fill="#101811"/>
<rect x="4" y="23" width="2" height="1" fill="#030f06"/>
<rect x="6" y="23" width="3" height="1" fill="#0b0203"/>
<rect x="9" y="23" width="8" height="1" fill="#092012"/>
<rect x="17" y="23" width="2" height="1" fill="#04270f"/>
<rect x="19" y="23" width="1" height="1" fill="#125129"/>
<rect x="20" y="23" width="1" height="1" fill="#064527"/>
<rect x="21" y="23" width="1" height="1" fill="#0e4733"/>
<rect x="22" y="23" width="1" height="1" fill="#064527"/>
<rect x="23" y="23" width="1" height="1" fill="#04270f"/>
<rect x="24" y="23" width="1" height="1" fill="#092012"/>
<rect x="25" y="23" width="1" height="1" fill="#04270f"/>
<rect x="26" y="23" width="1" height="1" fill="#092012"/>
<rect x="27" y="23" width="2" height="1" fill="#04270f"/>
<rect x="29" y="23" width="1" height="1" fill="#030f06"/>
<rect x="1" y="24" width="1" height="1" fill="#030f06"/>
<rect x="2" y="24" width="1" height="1" fill="#18150d"/>
<rect x="3" y="24" width="1" height="1" fill="#092012"/>
<rect x="4" y="24" width="3" height="1" fill="#030f06"/>
<rect x="7" y="24" width="1" height="1" fill="#092012"/>
<rect x="8" y="24" width="1" height="1" fill="#04270f"/>
<rect x="9" y="24" width="3" height="1" fill="#092012"/>
<rect x="12" y="24" width="1" height="1" fill="#04270f"/>
<rect x="13" y="24" width="1" height="1" fill="#092012"/>
<rect x="14" y="24" width="4" height="1" fill="#04270f"/>
<rect x="18" y="24" width="1" height="1" fill="#092012"/>
<rect x="19" y="24" width="1" height="1" fill="#04270f"/>
<rect x="20" y="24" width="1" height="1" fill="#214720"/>
<rect x="21" y="24" width="1" height="1" fill="#064527"/>
<rect x="22" y="24" width="1" height="1" fill="#125129"/>
<rect x="23" y="24" width="4" height="1" fill="#04270f"/>
<rect x="27" y="24" width="1" height="1" fill="#092012"/>
<rect x="28" y="24" width="1" height="1" fill="#030f06"/>
<rect x="29" y="24" width="1" height="1" fill="#18150d"/>
<rect x="3" y="25" width="1" height="1" fill="#092012"/>
<rect x="4" y="25" width="1" height="1" fill="#030f06"/>
<rect x="5" y="25" width="2" height="1" fill="#101811"/>
<rect x="7" y="25" width="2" height="1" fill="#04270f"/>
<rect x="9" y="25" width="1" height="1" fill="#092012"/>
<rect x="10" y="25" width="5" height="1" fill="#04270f"/>
<rect x="15" y="25" width="1" height="1" fill="#092012"/>
<rect x="16" y="25" width="5" height="1" fill="#04270f"/>
<rect x="21" y="25" width="1" height="1" fill="#094919"/>
<rect x="22" y="25" width="1" height="1" fill="#125129"/>
<rect x="23" y="25" width="1" height="1" fill="#092012"/>
<rect x="24" y="25" width="2" height="1" fill="#04270f"/>
<rect x="26" y="25" width="3" height="1" fill="#092012"/>
<rect x="29" y="25" width="1" height="1" fill="#0b0203"/>
<rect x="2" y="26" width="1" height="1" fill="#0b0203"/>
<rect x="3" y="26" width="1" height="1" fill="#1a4629"/>
<rect x="4" y="26" width="1" height="1" fill="#092012"/>
<rect x="5" y="26" width="1" height="1" fill="#030f06"/>
<rect x="6" y="26" width="1" height="1" fill="#101811"/>
<rect x="7" y="26" width="1" height="1" fill="#092012"/>
<rect x="8" y="26" width="1" height="1" fill="#04270f"/>
<rect x="9" y="26" width="1" height="1" fill="#092012"/>
<rect x="10" y="26" width="1" height="1" fill="#04270f"/>
<rect x="11" y="26" width="1" height="1" fill="#092012"/>
<rect x="12" y="26" width="1" height="1" fill="#04270f"/>
<rect x="13" y="26" width="2" height="1" fill="#092012"/>
<rect x="15" y="26" width="2" height="1" fill="#04270f"/>
<rect x="17" y="26" width="2" height="1" fill="#214720"/>
<rect x="19" y="26" width="1" height="1" fill="#1a4629"/>
<rect x="20" y="26" width="1" height="1" fill="#04270f"/>
<rect x="21" y="26" width="2" height="1" fill="#075339"/>
<rect x="23" y="26" width="2" height="1" fill="#04270f"/>
<rect x="25" y="26" width="4" height="1" fill="#092012"/>
<rect x="29" y="26" width="2" height="1" fill="#0b0203"/>
<rect x="3" y="27" width="1" height="1" fill="#04270f"/>
<rect x="4" y="27" width="1" height="1" fill="#092012"/>
<rect x="5" y="27" width="2" height="1" fill="#101811"/>
<rect x="7" y="27" width="3" height="1" fill="#04270f"/>
<rect x="10" y="27" width="1" height="1" fill="#092012"/>
<rect x="11" y="27" width="2" height="1" fill="#04270f"/>
<rect x="13" y="27" width="1" height="1" fill="#092012"/>
<rect x="14" y="27" width="2" height="1" fill="#04270f"/>
<rect x="16" y="27" width="1" height="1" fill="#092012"/>
<rect x="17" y="27" width="2" height="1" fill="#214720"/>
<rect x="19" y="27" width="1" height="1" fill="#064527"/>
<rect x="20" y="27" width="2" height="1" fill="#04270f"/>
<rect x="22" y="27" width="1" height="1" fill="#075339"/>
<rect x="23" y="27" width="2" height="1" fill="#04270f"/>
<rect x="25" y="27" width="1" height="1" fill="#092012"/>
<rect x="26" y="27" width="1" height="1" fill="#04270f"/>
<rect x="27" y="27" width="2" height="1" fill="#092012"/>
<rect x="29" y="27" width="1" height="1" fill="#0b0203"/>
<rect x="3" y="28" width="1" height="1" fill="#092012"/>
<rect x="4" y="28" width="1" height="1" fill="#04270f"/>
<rect x="5" y="28" width="1" height="1" fill="#030f06"/>
<rect x="6" y="28" width="2" height="1" fill="#092012"/>
<rect x="8" y="28" width="2" height="1" fill="#04270f"/>
<rect x="10" y="28" width="1" height="1" fill="#092012"/>
<rect x="11" y="28" width="3" height="1" fill="#04270f"/>
<rect x="14" y="28" width="1" height="1" fill="#092012"/>
<rect x="15" y="28" width="1" height="1" fill="#04270f"/>
<rect x="16" y="28" width="3" height="1" fill="#214720"/>
<rect x="19" y="28" width="2" height="1" fill="#1a4629"/>
<rect x="21" y="28" width="1" height="1" fill="#04270f"/>
<rect x="22" y="28" width="1" height="1" fill="#0e4733"/>
<rect x="23" y="28" width="3" height="1" fill="#04270f"/>
<rect x="26" y="28" width="1" height="1" fill="#092012"/>
<rect x="27" y="28" width="1" height="1" fill="#04270f"/>
<rect x="28" y="28" width="1" height="1" fill="#092012"/>
<rect x="29" y="28" width="1" height="1" fill="#0b0203"/>
<rect x="2" y="29" width="1" height="1" fill="#0b0203"/>
<rect x="3" y="29" width="2" height="1" fill="#04270f"/>
<rect x="5" y="29" width="2" height="1" fill="#092012"/>
<rect x="7" y="29" width="2" height="1" fill="#04270f"/>
<rect x="9" y="29" width="1" height="1" fill="#092012"/>
<rect x="10" y="29" width="2" height="1" fill="#04270f"/>
<rect x="12" y="29" width="1" height="1" fill="#092012"/>
<rect x="13" y="29" width="3" height="1" fill="#04270f"/>
<rect x="16" y="29" width="3" height="1" fill="#214720"/>
<rect x="19" y="29" width="1" height="1" fill="#125129"/>
<rect x="20" y="29" width="2" height="1" fill="#04270f"/>
<rect x="22" y="29" width="1" height="1" fill="#075339"/>
<rect x="23" y="29" width="2" height="1" fill="#04270f"/>
<rect x="25" y="29" width="1" height="1" fill="#092012"/>
<rect x="26" y="29" width="3" height="1" fill="#04270f"/>
<rect x="29" y="29" width="1" height="1" fill="#0b0203"/>
<rect x="3" y="30" width="1" height="1" fill="#092012"/>
<rect x="4" y="30" width="5" height="1" fill="#04270f"/>
<rect x="9" y="30" width="2" height="1" fill="#092012"/>
<rect x="11" y="30" width="3" height="1" fill="#04270f"/>
<rect x="14" y="30" width="1" height="1" fill="#092012"/>
<rect x="15" y="30" width="1" height="1" fill="#04270f"/>
<rect x="16" y="30" width="1" height="1" fill="#092012"/>
<rect x="17" y="30" width="3" height="1" fill="#04270f"/>
<rect x="20" y="30" width="1" height="1" fill="#092012"/>
<rect x="21" y="30" width="1" height="1" fill="#04270f"/>
<rect x="22" y="30" width="1" height="1" fill="#1a4629"/>
<rect x="23" y="30" width="1" height="1" fill="#125129"/>
<rect x="24" y="30" width="2" height="1" fill="#04270f"/>
<rect x="26" y="30" width="2" height="1" fill="#092012"/>
<rect x="28" y="30" width="1" height="1" fill="#030f06"/>
<rect x="29" y="30" width="2" height="1" fill="#0b0203"/>
<rect x="2" y="31" width="1" height="1" fill="#0b0203"/>
<rect x="3" y="31" width="6" height="1" fill="#04270f"/>
<rect x="9" y="31" width="2" height="1" fill="#092012"/>
<rect x="11" y="31" width="1" height="1" fill="#04270f"/>
<rect x="12" y="31" width="1" height="1" fill="#092012"/>
<rect x="13" y="31" width="1" height="1" fill="#04270f"/>
<rect x="14" y="31" width="1" height="1" fill="#092012"/>
<rect x="15" y="31" width="1" height="1" fill="#04270f"/>
<rect x="16" y="31" width="1" height="1" fill="#092012"/>
<rect x="17" y="31" width="1" height="1" fill="#04270f"/>
<rect x="18" y="31" width="2" height="1" fill="#092012"/>
<rect x="20" y="31" width="3" height="1" fill="#04270f"/>
<rect x="23" y="31" width="1" height="1" fill="#075339"/>
<rect x="24" y="31" width="1" height="1" fill="#04270f"/>
<rect x="25" y="31" width="1" height="1" fill="#092012"/>
<rect x="26" y="31" width="1" height="1" fill="#04270f"/>
<rect x="27" y="31" width="1" height="1" fill="#101811"/>
<rect x="28" y="31" width="1" height="1" fill="#030f06"/>
<rect x="29" y="31" width="3" height="1" fill="#0b0203"/>
<rect x="2" y="32" width="1" height="1" fill="#0b0203"/>
<rect x="3" y="32" width="11" height="1" fill="#04270f"/>
<rect x="14" y="32" width="2" height="1" fill="#092012"/>
<rect x="16" y="32" width="1" height="1" fill="#030f06"/>
<rect x="17" y="32" width="1" height="1" fill="#0b0203"/>
<rect x="20" y="32" width="1" height="1" fill="#18150d"/>
<rect x="21" y="32" width="2" height="1" fill="#101811"/>
<rect x="23" y="32" width="1" height="1" fill="#075339"/>
<rect x="24" y="32" width="2" height="1" fill="#04270f"/>
<rect x="26" y="32" width="1" height="1" fill="#092012"/>
<rect x="27" y="32" width="2" height="1" fill="#04270f"/>
<rect x="29" y="32" width="1" height="1" fill="#0b0203"/>
<rect x="30" y="32" width="1" height="1" fill="#030f06"/>
<rect x="31" y="32" width="1" height="1" fill="#210302"/>
<rect x="2" y="33" width="1" height="1" fill="#0b0203"/>
<rect x="3" y="33" width="1" height="1" fill="#125129"/>
<rect x="4" y="33" width="7" height="1" fill="#04270f"/>
<rect x="11" y="33" width="2" height="1" fill="#092012"/>
<rect x="13" y="33" width="1" height="1" fill="#030f06"/>
<rect x="21" y="33" width="1" height="1" fill="#030f06"/>
<rect x="22" y="33" width="1" height="1" fill="#092012"/>
<rect x="23" y="33" width="1" height="1" fill="#075339"/>
<rect x="24" y="33" width="5" height="1" fill="#04270f"/>
<rect x="29" y="33" width="1" height="1" fill="#18150d"/>
<rect x="30" y="33" width="1" height="1" fill="#0b0203"/>
<rect x="31" y="33" width="1" height="1" fill="#210302"/>
<rect x="3" y="34" width="1" height="1" fill="#1d5833"/>
<rect x="4" y="34" width="6" height="1" fill="#04270f"/>
<rect x="10" y="34" width="1" height="1" fill="#092012"/>
<rect x="11" y="34" width="1" height="1" fill="#030f06"/>
<rect x="21" y="34" width="1" height="1" fill="#0b0203"/>
<rect x="22" y="34" width="1" height="1" fill="#18150d"/>
<rect x="23" y="34" width="1" height="1" fill="#075339"/>
<rect x="24" y="34" width="1" height="1" fill="#04270f"/>
<rect x="25" y="34" width="2" height="1" fill="#092012"/>
<rect x="27" y="34" width="2" height="1" fill="#04270f"/>
<rect x="29" y="34" width="1" height="1" fill="#075339"/>
<rect x="30" y="34" width="1" height="1" fill="#04270f"/>
<rect x="31" y="34" width="1" height="1" fill="#0b0203"/>
<rect x="2" y="35" width="1" height="1" fill="#18150d"/>
<rect x="3" y="35" width="1" height="1" fill="#1d5833"/>
<rect x="4" y="35" width="5" height="1" fill="#04270f"/>
<rect x="9" y="35" width="1" height="1" fill="#092012"/>
<rect x="10" y="35" width="1" height="1" fill="#030f06"/>
<rect x="21" y="35" width="1" height="1" fill="#0b0203"/>
<rect x="22" y="35" width="1" height="1" fill="#18150d"/>
<rect x="23" y="35" width="1" height="1" fill="#075339"/>
<rect x="24" y="35" width="1" height="1" fill="#064527"/>
<rect x="25" y="35" width="2" height="1" fill="#092012"/>
<rect x="27" y="35" width="2" height="1" fill="#04270f"/>
<rect x="29" y="35" width="2" height="1" fill="#075339"/>
<rect x="31" y="35" width="1" height="1" fill="#0b0203"/>
<rect x="1" y="36" width="1" height="1" fill="#0b0203"/>
<rect x="2" y="36" width="1" height="1" fill="#18150d"/>
<rect x="3" y="36" width="6" height="1" fill="#04270f"/>
<rect x="9" y="36" width="1" height="1" fill="#0b0203"/>
<rect x="22" y="36" width="1" height="1" fill="#0b0203"/>
<rect x="23" y="36" width="1" height="1" fill="#075339"/>
<rect x="24" y="36" width="4" height="1" fill="#04270f"/>
<rect x="28" y="36" width="1" height="1" fill="#1d5833"/>
<rect x="29" y="36" width="1" height="1" fill="#39854c"/>
<rect x="30" y="36" width="1" height="1" fill="#125129"/>
<rect x="1" y="37" width="1" height="1" fill="#030f06"/>
<rect x="2" y="37" width="1" height="1" fill="#18150d"/>
<rect x="3" y="37" width="5" height="1" fill="#04270f"/>
<rect x="8" y="37" width="1" height="1" fill="#030f06"/>
<rect x="23" y="37" width="1" height="1" fill="#125129"/>
<rect x="24" y="37" width="4" height="1" fill="#04270f"/>
<rect x="28" y="37" width="1" height="1" fill="#125129"/>
<rect x="29" y="37" width="1" height="1" fill="#1d5833"/>
<rect x="30" y="37" width="1" height="1" fill="#030f06"/>
<rect x="1" y="38" width="1" height="1" fill="#030f06"/>
<rect x="2" y="38" width="1" height="1" fill="#1a4629"/>
<rect x="3" y="38" width="4" height="1" fill="#04270f"/>
<rect x="7" y="38" width="1" height="1" fill="#101811"/>
<rect x="23" y="38" width="2" height="1" fill="#064527"/>
<rect x="25" y="38" width="3" height="1" fill="#04270f"/>
<rect x="28" y="38" width="1" height="1" fill="#125129"/>
<rect x="29" y="38" width="1" height="1" fill="#18150d"/>
<rect x="30" y="38" width="1" height="1" fill="#0b0203"/>
<rect x="0" y="39" width="1" height="1" fill="#0b0203"/>
<rect x="1" y="39" width="1" height="1" fill="#04270f"/>
<rect x="2" y="39" width="1" height="1" fill="#1d5833"/>
<rect x="3" y="39" width="1" height="1" fill="#030f06"/>
<rect x="4" y="39" width="3" height="1" fill="#04270f"/>
<rect x="7" y="39" width="1" height="1" fill="#030f06"/>
<rect x="23" y="39" width="1" height="1" fill="#143b2d"/>
<rect x="24" y="39" width="3" height="1" fill="#04270f"/>
<rect x="27" y="39" width="2" height="1" fill="#1d5833"/>
<rect x="29" y="39" width="2" height="1" fill="#0b0203"/>
<rect x="0" y="40" width="1" height="1" fill="#210302"/>
<rect x="1" y="40" width="2" height="1" fill="#04270f"/>
<rect x="3" y="40" width="1" height="1" fill="#101811"/>
<rect x="4" y="40" width="3" height="1" fill="#04270f"/>
<rect x="7" y="40" width="1" height="1" fill="#0b0203"/>
<rect x="23" y="40" width="1" height="1" fill="#064527"/>
<rect x="24" y="40" width="3" height="1" fill="#04270f"/>
<rect x="27" y="40" width="1" height="1" fill="#335036"/>
<rect x="28" y="40" width="1" height="1" fill="#092012"/>
<rect x="29" y="40" width="1" height="1" fill="#210302"/>
<rect x="0" y="41" width="1" height="1" fill="#210302"/>
<rect x="1" y="41" width="2" height="1" fill="#04270f"/>
<rect x="3" y="41" width="1" height="1" fill="#030f06"/>
<rect x="4" y="41" width="1" height="1" fill="#092012"/>
<rect x="5" y="41" width="2" height="1" fill="#04270f"/>
<rect x="23" y="41" width="1" height="1" fill="#143b2d"/>
<rect x="24" y="41" width="3" height="1" fill="#04270f"/>
<rect x="27" y="41" width="1" height="1" fill="#335036"/>
<rect x="28" y="41" width="1" height="1" fill="#030f06"/>
<rect x="0" y="42" width="1" height="1" fill="#0b0203"/>
<rect x="1" y="42" width="1" height="1" fill="#1d5833"/>
<rect x="2" y="42" width="1" height="1" fill="#04270f"/>
<rect x="3" y="42" width="1" height="1" fill="#030f06"/>
<rect x="4" y="42" width="1" height="1" fill="#04270f"/>
<rect x="5" y="42" width="1" height="1" fill="#092012"/>
<rect x="23" y="42" width="2" height="1" fill="#064527"/>
<rect x="25" y="42" width="2" height="1" fill="#04270f"/>
<rect x="27" y="42" width="1" height="1" fill="#101811"/>
<rect x="0" y="43" width="1" height="1" fill="#0b0203"/>
<rect x="1" y="43" width="1" height="1" fill="#1d5833"/>
<rect x="2" y="43" width="3" height="1" fill="#04270f"/>
<rect x="5" y="43" width="1" height="1" fill="#18150d"/>
<rect x="23" y="43" width="1" height="1" fill="#0e4733"/>
<rect x="24" y="43" width="1" height="1" fill="#04270f"/>
<rect x="25" y="43" width="1" height="1" fill="#030f06"/>
<rect x="26" y="43" width="1" height="1" fill="#04270f"/>
<rect x="27" y="43" width="1" height="1" fill="#101811"/>
<rect x="28" y="43" width="1" height="1" fill="#030f06"/>
<rect x="0" y="44" width="1" height="1" fill="#0b0203"/>
<rect x="1" y="44" width="1" height="1" fill="#39854c"/>
<rect x="2" y="44" width="1" height="1" fill="#094919"/>
<rect x="3" y="44" width="2" height="1" fill="#04270f"/>
<rect x="5" y="44" width="1" height="1" fill="#0b0203"/>
<rect x="23" y="44" width="1" height="1" fill="#0e4733"/>
<rect x="24" y="44" width="1" height="1" fill="#064527"/>
<rect x="25" y="44" width="1" height="1" fill="#030f06"/>
<rect x="26" y="44" width="1" height="1" fill="#092012"/>
<rect x="27" y="44" width="1" height="1" fill="#0b0203"/>
<rect x="0" y="45" width="1" height="1" fill="#0b0203"/>
<rect x="1" y="45" width="1" height="1" fill="#39854c"/>
<rect x="2" y="45" width="1" height="1" fill="#035026"/>
<rect x="3" y="45" width="1" height="1" fill="#04270f"/>
<rect x="4" y="45" width="1" height="1" fill="#030f06"/>
<rect x="23" y="45" width="1" height="1" fill="#0e4733"/>
<rect x="24" y="45" width="1" height="1" fill="#092012"/>
<rect x="25" y="45" width="1" height="1" fill="#030f06"/>
<rect x="26" y="45" width="1" height="1" fill="#092012"/>
<rect x="27" y="45" width="1" height="1" fill="#0b0203"/>
<rect x="0" y="46" width="1" height="1" fill="#210302"/>
<rect x="1" y="46" width="1" height="1" fill="#101811"/>
<rect x="2" y="46" width="1" height="1" fill="#18150d"/>
<rect x="3" y="46" width="1" height="1" fill="#210302"/>
<rect x="4" y="46" width="1" height="1" fill="#0b0203"/>
<rect x="23" y="46" width="1" height="1" fill="#436748"/>
<rect x="24" y="46" width="1" height="1" fill="#030f06"/>
<rect x="25" y="46" width="2" height="1" fill="#04270f"/>
<rect x="27" y="46" width="1" height="1" fill="#0b0203"/>
<rect x="2" y="47" width="1" height="1" fill="#030f06"/>
<rect x="3" y="47" width="1" height="1" fill="#0b0203"/>
<rect x="22" y="47" width="1" height="1" fill="#0b0203"/>
<rect x="23" y="47" width="1" height="1" fill="#1a4629"/>
<rect x="24" y="47" width="1" height="1" fill="#030f06"/>
<rect x="25" y="47" width="1" height="1" fill="#04270f"/>
<rect x="26" y="47" width="1" height="1" fill="#030f06"/>
<rect x="27" y="47" width="1" height="1" fill="#0b0203"/>
<rect x="22" y="48" width="1" height="1" fill="#030f06"/>
<rect x="23" y="48" width="1" height="1" fill="#04270f"/>
<rect x="24" y="48" width="1" height="1" fill="#030f06"/>
<rect x="25" y="48" width="1" height="1" fill="#092012"/>
<rect x="22" y="49" width="1" height="1" fill="#030f06"/>
<rect x="23" y="49" width="2" height="1" fill="#04270f"/>
<rect x="25" y="49" width="1" height="1" fill="#092012"/>
<rect x="26" y="49" width="1" height="1" fill="#101811"/>
<rect x="22" y="50" width="1" height="1" fill="#436748"/>
<rect x="23" y="50" width="1" height="1" fill="#1d5833"/>
<rect x="24" y="50" width="1" height="1" fill="#04270f"/>
<rect x="25" y="50" width="2" height="1" fill="#0b0203"/>
<rect x="22" y="51" width="1" height="1" fill="#436748"/>
<rect x="23" y="51" width="1" height="1" fill="#1d5833"/>
<rect x="24" y="51" width="1" height="1" fill="#094919"/>
<rect x="25" y="51" width="1" height="1" fill="#0b0203"/>
<rect x="22" y="52" width="1" height="1" fill="#18150d"/>
<rect x="23" y="52" width="1" height="1" fill="#335036"/>
<rect x="24" y="52" width="1" height="1" fill="#030f06"/>
<rect x="25" y="52" width="1" height="1" fill="#0b0203"/>
<rect x="23" y="53" width="1" height="1" fill="#030f06"/>
<rect x="25" y="53" width="1" height="1" fill="#0b0203"/>
</svg>
